<svg width="134" height="45" viewBox="0 0 134 45" fill="none" xmlns="http://www.w3.org/2000/svg">
<rect width="134" height="45" fill="#E4E4EE"/>
<path d="M22.0804 27.052C22.3297 27.052 22.5277 27.1473 22.6744 27.338C22.8357 27.5287 22.9164 27.7853 22.9164 28.108C22.9164 28.5627 22.645 28.944 22.1024 29.252C21.6037 29.5307 21.0391 29.758 20.4084 29.934C19.7777 30.0953 19.1764 30.176 18.6044 30.176C16.8737 30.176 15.5024 29.6773 14.4904 28.68C13.4784 27.6827 12.9724 26.3187 12.9724 24.588C12.9724 23.488 13.1924 22.5127 13.6324 21.662C14.0724 20.8113 14.6884 20.1513 15.4804 19.682C16.2871 19.2127 17.1964 18.978 18.2084 18.978C19.1764 18.978 20.0197 19.1907 20.7384 19.616C21.4571 20.0413 22.0144 20.6427 22.4104 21.42C22.8064 22.1973 23.0044 23.114 23.0044 24.17C23.0044 24.8007 22.7257 25.116 22.1684 25.116H15.6784C15.7664 26.128 16.0524 26.876 16.5364 27.36C17.0204 27.8293 17.7244 28.064 18.6484 28.064C19.1177 28.064 19.5284 28.0053 19.8804 27.888C20.247 27.7707 20.6577 27.6093 21.1124 27.404C21.5524 27.1693 21.8751 27.052 22.0804 27.052ZM18.2744 20.914C17.5264 20.914 16.9251 21.1487 16.4704 21.618C16.0304 22.0873 15.7664 22.762 15.6784 23.642H20.6504C20.6211 22.7473 20.4011 22.0727 19.9904 21.618C19.5797 21.1487 19.0077 20.914 18.2744 20.914ZM34.631 27.976C34.895 28.24 35.027 28.5407 35.027 28.878C35.027 29.2007 34.9024 29.494 34.653 29.758C34.4037 30.0073 34.1104 30.132 33.773 30.132C33.4064 30.132 33.091 29.978 32.827 29.67L29.725 26.238L26.623 29.67C26.3444 29.9633 26.029 30.11 25.677 30.11C25.3544 30.11 25.0684 29.9853 24.819 29.736C24.5697 29.4867 24.445 29.2007 24.445 28.878C24.445 28.5407 24.577 28.24 24.841 27.976L28.053 24.478L25.017 21.178C24.753 20.914 24.621 20.6133 24.621 20.276C24.621 19.9387 24.7457 19.6527 24.995 19.418C25.2444 19.1687 25.5304 19.044 25.853 19.044C26.205 19.044 26.5204 19.1907 26.799 19.484L29.725 22.696L32.651 19.484C32.9297 19.1907 33.245 19.044 33.597 19.044C33.9344 19.044 34.2204 19.1687 34.455 19.418C34.7044 19.6527 34.829 19.9387 34.829 20.276C34.829 20.6133 34.697 20.914 34.433 21.178L31.397 24.478L34.631 27.976ZM43.458 18.978C44.382 18.978 45.2034 19.2127 45.922 19.682C46.6554 20.1513 47.22 20.8187 47.616 21.684C48.0267 22.5347 48.232 23.5173 48.232 24.632C48.232 25.7467 48.0267 26.722 47.616 27.558C47.22 28.394 46.6627 29.0393 45.944 29.494C45.2254 29.9487 44.3967 30.176 43.458 30.176C42.6954 30.176 42.0134 30.0147 41.412 29.692C40.8107 29.3693 40.3487 28.922 40.026 28.35V32.838C40.026 33.2193 39.9014 33.52 39.652 33.74C39.4027 33.96 39.0727 34.07 38.662 34.07C38.2514 34.07 37.914 33.9527 37.65 33.718C37.4007 33.4833 37.276 33.1753 37.276 32.794V20.32C37.276 19.924 37.3934 19.6087 37.628 19.374C37.8774 19.1393 38.2074 19.022 38.618 19.022C39.0287 19.022 39.3587 19.1393 39.608 19.374C39.8574 19.6087 39.982 19.924 39.982 20.32V20.87C40.3047 20.2687 40.7667 19.8067 41.368 19.484C41.984 19.1467 42.6807 18.978 43.458 18.978ZM42.732 28.042C43.5974 28.042 44.272 27.7487 44.756 27.162C45.24 26.5607 45.482 25.7173 45.482 24.632C45.482 23.5173 45.24 22.652 44.756 22.036C44.272 21.42 43.5974 21.112 42.732 21.112C41.852 21.112 41.17 21.4127 40.686 22.014C40.2167 22.6153 39.982 23.4733 39.982 24.588C39.982 25.688 40.2167 26.5387 40.686 27.14C41.17 27.7413 41.852 28.042 42.732 28.042ZM59.2669 27.052C59.5162 27.052 59.7142 27.1473 59.8609 27.338C60.0222 27.5287 60.1029 27.7853 60.1029 28.108C60.1029 28.5627 59.8316 28.944 59.2889 29.252C58.7902 29.5307 58.2256 29.758 57.5949 29.934C56.9642 30.0953 56.3629 30.176 55.7909 30.176C54.0602 30.176 52.6889 29.6773 51.6769 28.68C50.6649 27.6827 50.1589 26.3187 50.1589 24.588C50.1589 23.488 50.3789 22.5127 50.8189 21.662C51.2589 20.8113 51.8749 20.1513 52.6669 19.682C53.4736 19.2127 54.3829 18.978 55.3949 18.978C56.3629 18.978 57.2062 19.1907 57.9249 19.616C58.6436 20.0413 59.2009 20.6427 59.5969 21.42C59.9929 22.1973 60.1909 23.114 60.1909 24.17C60.1909 24.8007 59.9122 25.116 59.3549 25.116H52.8649C52.9529 26.128 53.2389 26.876 53.7229 27.36C54.2069 27.8293 54.9109 28.064 55.8349 28.064C56.3042 28.064 56.7149 28.0053 57.0669 27.888C57.4336 27.7707 57.8442 27.6093 58.2989 27.404C58.7389 27.1693 59.0616 27.052 59.2669 27.052ZM55.4609 20.914C54.7129 20.914 54.1116 21.1487 53.6569 21.618C53.2169 22.0873 52.9529 22.762 52.8649 23.642H57.8369C57.8076 22.7473 57.5876 22.0727 57.1769 21.618C56.7662 21.1487 56.1942 20.914 55.4609 20.914ZM67.4784 30.176C66.4077 30.176 65.4617 29.9487 64.6404 29.494C63.8337 29.0393 63.2104 28.394 62.7704 27.558C62.3304 26.722 62.1104 25.7467 62.1104 24.632C62.1104 23.5173 62.3377 22.5347 62.7924 21.684C63.2617 20.8187 63.9144 20.1513 64.7504 19.682C65.5864 19.2127 66.5471 18.978 67.6324 18.978C68.2044 18.978 68.7764 19.0587 69.3484 19.22C69.9351 19.3813 70.4484 19.6013 70.8884 19.88C71.3577 20.188 71.5924 20.5767 71.5924 21.046C71.5924 21.3687 71.5117 21.6327 71.3504 21.838C71.2037 22.0287 71.0057 22.124 70.7564 22.124C70.5951 22.124 70.4264 22.0873 70.2504 22.014C70.0744 21.9407 69.8984 21.8527 69.7224 21.75C69.3997 21.5593 69.0917 21.4127 68.7984 21.31C68.5051 21.1927 68.1677 21.134 67.7864 21.134C66.8771 21.134 66.1731 21.4347 65.6744 22.036C65.1904 22.6227 64.9484 23.4733 64.9484 24.588C64.9484 25.688 65.1904 26.5387 65.6744 27.14C66.1731 27.7267 66.8771 28.02 67.7864 28.02C68.1531 28.02 68.4757 27.9687 68.7544 27.866C69.0477 27.7487 69.3704 27.5947 69.7224 27.404C69.9424 27.272 70.1331 27.1767 70.2944 27.118C70.4557 27.0447 70.6171 27.008 70.7784 27.008C71.0131 27.008 71.2111 27.1107 71.3724 27.316C71.5337 27.5213 71.6144 27.778 71.6144 28.086C71.6144 28.3353 71.5557 28.5553 71.4384 28.746C71.3357 28.922 71.1597 29.0833 70.9104 29.23C70.4557 29.5233 69.9277 29.758 69.3264 29.934C68.7251 30.0953 68.1091 30.176 67.4784 30.176ZM79.3631 28.086C80.0964 28.13 80.4631 28.46 80.4631 29.076C80.4631 29.428 80.3164 29.6993 80.0231 29.89C79.7444 30.066 79.3411 30.1393 78.8131 30.11L78.2191 30.066C75.7551 29.89 74.5231 28.57 74.5231 26.106V21.31H73.4231C73.0271 21.31 72.7191 21.222 72.4991 21.046C72.2937 20.87 72.1911 20.6133 72.1911 20.276C72.1911 19.9387 72.2937 19.682 72.4991 19.506C72.7191 19.33 73.0271 19.242 73.4231 19.242H74.5231V17.218C74.5231 16.822 74.6477 16.5067 74.8971 16.272C75.1464 16.0373 75.4837 15.92 75.9091 15.92C76.3197 15.92 76.6497 16.0373 76.8991 16.272C77.1484 16.5067 77.2731 16.822 77.2731 17.218V19.242H79.1431C79.5391 19.242 79.8397 19.33 80.0451 19.506C80.2651 19.682 80.3751 19.9387 80.3751 20.276C80.3751 20.6133 80.2651 20.87 80.0451 21.046C79.8397 21.222 79.5391 21.31 79.1431 21.31H77.2731V26.304C77.2731 27.3893 77.7717 27.9687 78.7691 28.042L79.3631 28.086ZM90.6741 27.052C90.9235 27.052 91.1215 27.1473 91.2681 27.338C91.4295 27.5287 91.5101 27.7853 91.5101 28.108C91.5101 28.5627 91.2388 28.944 90.6961 29.252C90.1975 29.5307 89.6328 29.758 89.0021 29.934C88.3715 30.0953 87.7701 30.176 87.1981 30.176C85.4675 30.176 84.0961 29.6773 83.0841 28.68C82.0721 27.6827 81.5661 26.3187 81.5661 24.588C81.5661 23.488 81.7861 22.5127 82.2261 21.662C82.6661 20.8113 83.2821 20.1513 84.0741 19.682C84.8808 19.2127 85.7901 18.978 86.8021 18.978C87.7701 18.978 88.6135 19.1907 89.3321 19.616C90.0508 20.0413 90.6081 20.6427 91.0041 21.42C91.4001 22.1973 91.5981 23.114 91.5981 24.17C91.5981 24.8007 91.3195 25.116 90.7621 25.116H84.2721C84.3601 26.128 84.6461 26.876 85.1301 27.36C85.6141 27.8293 86.3181 28.064 87.2421 28.064C87.7115 28.064 88.1221 28.0053 88.4741 27.888C88.8408 27.7707 89.2515 27.6093 89.7061 27.404C90.1461 27.1693 90.4688 27.052 90.6741 27.052ZM86.8681 20.914C86.1201 20.914 85.5188 21.1487 85.0641 21.618C84.6241 22.0873 84.3601 22.762 84.2721 23.642H89.2441C89.2148 22.7473 88.9948 22.0727 88.5841 21.618C88.1735 21.1487 87.6015 20.914 86.8681 20.914ZM103.088 14.38C103.498 14.38 103.836 14.4973 104.1 14.732C104.364 14.9667 104.496 15.2747 104.496 15.656V28.812C104.496 29.208 104.371 29.5233 104.122 29.758C103.872 29.9927 103.542 30.11 103.132 30.11C102.721 30.11 102.391 29.9927 102.142 29.758C101.892 29.5233 101.768 29.208 101.768 28.812V28.262C101.445 28.8633 100.976 29.3327 100.36 29.67C99.7583 30.0073 99.069 30.176 98.2916 30.176C97.3676 30.176 96.539 29.9413 95.8056 29.472C95.087 29.0027 94.5223 28.3427 94.1116 27.492C93.7156 26.6267 93.5176 25.6367 93.5176 24.522C93.5176 23.4073 93.7156 22.432 94.1116 21.596C94.5223 20.76 95.087 20.1147 95.8056 19.66C96.5243 19.2053 97.353 18.978 98.2916 18.978C99.069 18.978 99.7583 19.1393 100.36 19.462C100.961 19.7847 101.423 20.2393 101.746 20.826V15.612C101.746 15.2453 101.863 14.952 102.098 14.732C102.347 14.4973 102.677 14.38 103.088 14.38ZM99.0176 28.042C99.8976 28.042 100.572 27.7413 101.042 27.14C101.526 26.5387 101.768 25.6807 101.768 24.566C101.768 23.4513 101.526 22.6007 101.042 22.014C100.572 21.4127 99.905 21.112 99.0396 21.112C98.1596 21.112 97.4776 21.4053 96.9936 21.992C96.5096 22.5787 96.2676 23.422 96.2676 24.522C96.2676 25.6367 96.5096 26.502 96.9936 27.118C97.4776 27.734 98.1523 28.042 99.0176 28.042ZM119.117 15.106C119.351 14.6073 119.74 14.358 120.283 14.358C120.649 14.358 120.979 14.4753 121.273 14.71C121.566 14.9447 121.713 15.238 121.713 15.59C121.713 15.7513 121.669 15.9347 121.581 16.14L115.487 29.252C115.355 29.5307 115.149 29.7507 114.871 29.912C114.607 30.0587 114.321 30.132 114.013 30.132C113.705 30.132 113.411 30.0587 113.133 29.912C112.869 29.7507 112.671 29.5307 112.539 29.252L106.467 16.14C106.379 15.9347 106.335 15.7587 106.335 15.612C106.335 15.2453 106.481 14.9447 106.775 14.71C107.083 14.4753 107.427 14.358 107.809 14.358C108.058 14.358 108.285 14.424 108.491 14.556C108.711 14.6733 108.879 14.8567 108.997 15.106L114.057 26.348L119.117 15.106Z" fill="#050446"/>
</svg>
